nColumns=19
nRows=111
DataType=double
version=3
OpenSimVersion=4.1
endheader
time	ground_force_1_vx	ground_force_1_vy	ground_force_1_vz	ground_force_1_px	ground_force_1_py	ground_force_1_pz	ground_force_1_mx	ground_force_1_my	ground_force_1_mz	ground_force_2_vx	ground_force_2_vy	ground_force_2_vz	ground_force_2_px	ground_force_2_py	ground_force_2_pz	ground_force_2_mx	ground_force_2_my	ground_force_2_mz
0.55	-4.49628	10.7532	-3.52026	1.09279	0	-0.229744	0	-0.42537	0	0	0	0	0.000486825	0	-0.000750202	0	0	0
0.56	-19.2291	34.2815	-9.05367	1.17234	0	-0.287813	-0	1.17319	-0	0	0	0	0.000486825	0	-0.000750202	0	0	0
0.57	-64.1052	120.56	-17.6821	1.21617	0	-0.301433	-0	2.84727	-0	0	0	0	0.000486825	0	-0.000750202	0	0	0
0.58	-139.343	304.493	-25.5318	1.2183	0	-0.305001	-0	3.85515	-0	0	0	0	0.000486825	0	-0.000750202	0	0	0
0.59	-172.601	556.683	-25.5902	1.19196	0	-0.309547	-0	3.54264	-0	0	0	0	0.000486825	0	-0.000750202	0	0	0
0.6	-134.527	843.424	-12.514	1.1362	0	-0.315959	-0	1.71893	-0	0	0	0	0.000486825	0	-0.000750202	0	0	0
0.61	-119.676	1126.93	13.2419	1.08595	0	-0.321186	0	-1.1479	0	0	0	0	0.000486825	0	-0.000750202	0	0	0
0.62	-151.502	1344.28	42.4984	1.05349	0	-0.3242	0	-4.07667	0	0	0	0	0.000486825	0	-0.000750202	0	0	0
0.63	-161.586	1506.74	61.2784	1.02255	0	-0.326462	0	-6.02921	0	0	0	0	0.000486825	0	-0.000750202	0	0	0
0.64	-119.609	1650.69	65.1777	0.984551	0	-0.327524	0	-6.42282	0	0	0	0	0.000486825	0	-0.000750202	0	0	0
0.65	-58.6156	1756.73	61.4609	0.945814	0	-0.326985	0	-5.36859	0	0	0	0	0.000486825	0	-0.000750202	0	0	0
0.66	-2.84749	1798.11	56.6852	0.910566	0	-0.326213	0	-3.5163	0	0	0	0	0.000486825	0	-0.000750202	0	0	0
0.67	52.0428	1776.2	53.7203	0.877052	0	-0.325936	0	-1.67205	0	0	0	0	0.000486825	0	-0.000750202	0	0	0
0.68	106.108	1697.01	54.1625	0.843903	0	-0.325799	0	-0.431012	0	0	0	0	0.000486825	0	-0.000750202	0	0	0
0.69	153.648	1558.45	56.4945	0.810756	0	-0.325904	-0	0.014892	-0	0	0	0	0.000486825	0	-0.000750202	0	0	0
0.7	196.231	1356.53	57.4895	0.774977	0	-0.326578	0	-0.152442	0	0	0	0	0.000486825	0	-0.000750202	0	0	0
0.71	234.287	1099.24	55.7451	0.732521	0	-0.327622	0	-0.558682	0	0	0	0	0.000486825	0	-0.000750202	0	0	0
0.72	249.325	819.468	51.7151	0.685407	0	-0.328611	0	-0.841758	0	0	0	0	0.000486825	0	-0.000750202	0	0	0
0.73	226.001	564.072	46.403	0.644732	0	-0.329004	0	-0.784866	0	0	0	0	0.000486825	0	-0.000750202	0	0	0
0.74	179.056	359.1	40.2293	0.619164	0	-0.328189	0	-0.352262	0	0	0	0	0.000486825	0	-0.000750202	0	0	0
0.75	125.183	206.684	32.5182	0.607295	0	-0.325922	-0	0.34808	-0	0	0	0	0.000486825	0	-0.000750202	0	0	0
0.76	71.3876	102.536	22.9582	0.605816	0	-0.321706	-0	1.13701	-0	0	0	0	0.000486825	0	-0.000750202	0	0	0
0.77	28.2203	41.7671	13.1232	0.633133	0	-0.311744	-0	1.84331	-0	0	0	0	0.000486825	0	-0.000750202	0	0	0
0.78	5.78651	13.8695	5.77387	0.732753	0	-0.283797	-0	2.36537	-0	0	0	0	0.000486825	0	-0.000750202	0	0	0
0.79	0	0	0	0.000486825	0	-0.000750202	0	0	0	0	0	0	0.000486825	0	-0.000750202	0	0	0
0.8	0	0	0	0.000486825	0	-0.000750202	0	0	0	0	0	0	0.000486825	0	-0.000750202	0	0	0
0.81	0	0	0	0.000486825	0	-0.000750202	0	0	0	0	0	0	0.000486825	0	-0.000750202	0	0	0
0.82	0	0	0	0.000486825	0	-0.000750202	0	0	0	0	0	0	0.000486825	0	-0.000750202	0	0	0
0.83	0	0	0	0.000486825	0	-0.000750202	0	0	0	0	0	0	0.000486825	0	-0.000750202	0	0	0
0.84	0	0	0	0.000486825	0	-0.000750202	0	0	0	-3.98408	11.3836	0.130929	1.11776	0	-0.3082	0	-0.775793	0
0.85	0	0	0	0.000486825	0	-0.000750202	0	0	0	-17.4575	44.8554	0.998313	1.12717	0	-0.36512	0	-3.55483	0
0.86	0	0	0	0.000486825	0	-0.000750202	0	0	0	-51.2764	167.982	6.36708	1.13485	0	-0.371375	0	-6.72262	0
0.87	0	0	0	0.000486825	0	-0.000750202	0	0	0	-96.7832	460.923	20.0385	1.13634	0	-0.365328	0	-9.47113	0
0.88	0	0	0	0.000486825	0	-0.000750202	0	0	0	-124.471	877.924	36.1384	1.12988	0	-0.356354	0	-10.9178	0
0.89	0	0	0	0.000486825	0	-0.000750202	0	0	0	-136.476	1193.85	33.6724	1.11524	0	-0.350853	0	-10.6247	0
0.9	0	0	0	0.000486825	0	-0.000750202	0	0	0	-162.828	1313.43	2.41666	1.09488	0	-0.353348	0	-8.99633	0
0.91	0	0	0	0.000486825	0	-0.000750202	0	0	0	-194.831	1378.52	-29.1636	1.06963	0	-0.359694	0	-7.0946	0
0.92	0	0	0	0.000486825	0	-0.000750202	0	0	0	-193.783	1510.43	-27.4962	1.03699	0	-0.360486	0	-5.8567	0
0.93	0	0	0	0.000486825	0	-0.000750202	0	0	0	-144.804	1672.86	-3.75896	0.997646	0	-0.35802	0	-5.40158	0
0.94	0	0	0	0.000486825	0	-0.000750202	0	0	0	-82.3769	1766.88	7.09158	0.960005	0	-0.358872	0	-5.08853	0
0.95	0	0	0	0.000486825	0	-0.000750202	0	0	0	-34.1125	1768.75	-2.80652	0.925815	0	-0.36199	0	-4.1505	0
0.96	0	0	0	0.000486825	0	-0.000750202	0	0	0	17.3797	1722.27	-16.9125	0.890347	0	-0.362618	0	-2.22084	0
0.97	0	0	0	0.000486825	0	-0.000750202	0	0	0	80.3126	1639.44	-27.0521	0.852796	0	-0.360586	-0	0.559841	-0
0.98	0	0	0	0.000486825	0	-0.000750202	0	0	0	143.619	1501.95	-37.2226	0.814232	0	-0.358698	-0	3.68468	-0
0.99	0	0	0	0.000486825	0	-0.000750202	0	0	0	204.851	1314.47	-47.9839	0.77214	0	-0.357692	-0	6.48031	-0
1	0	0	0	0.000486825	0	-0.000750202	0	0	0	252.104	1101.39	-53.7658	0.727535	0	-0.356645	-0	8.33697	-0
1.01	0	0	0	0.000486825	0	-0.000750202	0	0	0	263.28	876.204	-51.5766	0.687842	0	-0.355385	-0	8.93182	-0
1.02	0	0	0	0.000486825	0	-0.000750202	0	0	0	242.191	648.067	-44.8904	0.655845	0	-0.354555	-0	8.33174	-0
1.03	0	0	0	0.000486825	0	-0.000750202	0	0	0	203.648	432.991	-38.0824	0.627003	0	-0.355122	-0	6.91279	-0
1.04	0	0	0	0.000486825	0	-0.000750202	0	0	0	152.008	254.021	-31.1598	0.598402	0	-0.356021	-0	5.16936	-0
1.05	0	0	0	0.000486825	0	-0.000750202	0	0	0	90.646	127.181	-22.3681	0.571647	0	-0.354565	-0	3.53351	-0
1.06	0	0	0	0.000486825	0	-0.000750202	0	0	0	39.1225	52.488	-12.7434	0.556574	0	-0.348153	-0	2.25759	-0
1.07	0	0	0	0.000486825	0	-0.000750202	0	0	0	11.3714	17.8937	-5.32968	0.650579	0	-0.321295	-0	1.36088	-0
1.08	0	0	0	0.000486825	0	-0.000750202	0	0	0	0	0	0	0.000486825	0	-0.000750202	0	0	0
1.09	0	0	0	0.000486825	0	-0.000750202	0	0	0	0	0	0	0.000486825	0	-0.000750202	0	0	0
1.1	0	0	0	0.000486825	0	-0.000750202	0	0	0	0	0	0	0.000486825	0	-0.000750202	0	0	0
1.11	0	0	0	0.000486825	0	-0.000750202	0	0	0	0	0	0	0.000486825	0	-0.000750202	0	0	0
1.12	0	0	0	0.000486825	0	-0.000750202	0	0	0	0	0	0	0.000486825	0	-0.000750202	0	0	0
1.13	0	0	0	0.000486825	0	-0.000750202	0	0	0	0	0	0	0.000486825	0	-0.000750202	0	0	0
1.14	0	0	0	0.000486825	0	-0.000750202	0	0	0	0	0	0	0.000486825	0	-0.000750202	0	0	0
1.15	-3.56825	25.4179	-16.0632	1.21266	0	-0.304073	-0	2.4647	-0	0	0	0	0.000486825	0	-0.000750202	0	0	0
1.16	-24.5605	105.114	-35.4634	1.20085	0	-0.323144	-0	6.7579	-0	0	0	0	0.000486825	0	-0.000750202	0	0	0
1.17	-73.9238	337.018	-58.6018	1.19135	0	-0.327119	-0	10.7017	-0	0	0	0	0.000486825	0	-0.000750202	0	0	0
1.18	-128.306	725.641	-68.6263	1.18364	0	-0.329259	-0	12.9514	-0	0	0	0	0.000486825	0	-0.000750202	0	0	0
1.19	-137.231	1065.49	-50.1443	1.16597	0	-0.332994	-0	12.8141	-0	0	0	0	0.000486825	0	-0.000750202	0	0	0
1.2	-154.903	1235.28	-13.0454	1.13822	0	-0.338007	-0	10.6569	-0	0	0	0	0.000486825	0	-0.000750202	0	0	0
1.21	-215.748	1337.9	15.6714	1.10838	0	-0.343262	-0	7.61877	-0	0	0	0	0.000486825	0	-0.000750202	0	0	0
1.22	-227	1487.58	25.5256	1.07047	0	-0.346982	-0	4.86854	-0	0	0	0	0.000486825	0	-0.000750202	0	0	0
1.23	-174.87	1693.75	28.622	1.02622	0	-0.348132	-0	3.03027	-0	0	0	0	0.000486825	0	-0.000750202	0	0	0
1.24	-113.871	1858.08	37.1185	0.987968	0	-0.347885	-0	2.11208	-0	0	0	0	0.000486825	0	-0.000750202	0	0	0
1.25	-76.6834	1914.58	49.8816	0.959548	0	-0.348561	-0	1.77149	-0	0	0	0	0.000486825	0	-0.000750202	0	0	0
1.26	-45.1578	1898.05	60.7777	0.933126	0	-0.349646	-0	1.60091	-0	0	0	0	0.000486825	0	-0.000750202	0	0	0
1.27	0.494681	1845.1	67.0789	0.903749	0	-0.349782	-0	1.29349	-0	0	0	0	0.000486825	0	-0.000750202	0	0	0
1.28	49.5244	1751.14	68.6973	0.873645	0	-0.349655	-0	0.713367	-0	0	0	0	0.000486825	0	-0.000750202	0	0	0
1.29	89.0763	1602.95	67.7257	0.844397	0	-0.350413	0	-0.082916	0	0	0	0	0.000486825	0	-0.000750202	0	0	0
1.3	119.262	1402.12	67.3864	0.815055	0	-0.351799	0	-0.860364	0	0	0	0	0.000486825	0	-0.000750202	0	0	0
1.31	137.639	1155.72	67.8133	0.786196	0	-0.353032	0	-1.27705	0	0	0	0	0.000486825	0	-0.000750202	0	0	0
1.32	144.999	873.647	64.7511	0.755302	0	-0.354123	0	-1.03426	0	0	0	0	0.000486825	0	-0.000750202	0	0	0
1.33	147.375	587.742	54.3371	0.714018	0	-0.355518	0	-0.057971	0	0	0	0	0.000486825	0	-0.000750202	0	0	0
1.34	133.168	347.392	38.6121	0.666528	0	-0.35656	-0	1.40928	-0	0	0	0	0.000486825	0	-0.000750202	0	0	0
1.35	95.8031	178.762	23.7476	0.629938	0	-0.356454	-0	2.8956	-0	0	0	0	0.000486825	0	-0.000750202	0	0	0
1.36	50.2155	78.4453	13.2606	0.634449	0	-0.353281	-0	3.91885	-0	0	0	0	0.000486825	0	-0.000750202	0	0	0
1.37	18.4691	28.8892	6.72753	0.712871	0	-0.340227	-0	4.19473	-0	0	0	0	0.000486825	0	-0.000750202	0	0	0
1.38	0	0	0	0.000486825	0	-0.000750202	0	0	0	0	0	0	0.000486825	0	-0.000750202	0	0	0
1.39	0	0	0	0.000486825	0	-0.000750202	0	0	0	0	0	0	0.000486825	0	-0.000750202	0	0	0
1.4	0	0	0	0.000486825	0	-0.000750202	0	0	0	0	0	0	0.000486825	0	-0.000750202	0	0	0
1.41	0	0	0	0.000486825	0	-0.000750202	0	0	0	0	0	0	0.000486825	0	-0.000750202	0	0	0
1.42	0	0	0	0.000486825	0	-0.000750202	0	0	0	0	0	0	0.000486825	0	-0.000750202	0	0	0
1.43	0	0	0	0.000486825	0	-0.000750202	0	0	0	0	0	0	0.000486825	0	-0.000750202	0	0	0
1.44	0	0	0	0.000486825	0	-0.000750202	0	0	0	0	0	0	0.000486825	0	-0.000750202	0	0	0
1.45	0	0	0	0.000486825	0	-0.000750202	0	0	0	0	0	0	0.000486825	0	-0.000750202	0	0	0
1.46	0	0	0	0.000486825	0	-0.000750202	0	0	0	0	0	0	0.000486825	0	-0.000750202	0	0	0
1.47	0	0	0	0.000486825	0	-0.000750202	0	0	0	0	0	0	0.000486825	0	-0.000750202	0	0	0
1.48	0	0	0	0.000486825	0	-0.000750202	0	0	0	-4.29346	20.1072	3.57668	1.08309	0	-0.372192	-0	1.43791	-0
1.49	0	0	0	0.000486825	0	-0.000750202	0	0	0	-11.6975	86.3164	10.2424	1.12746	0	-0.390177	0	-2.84132	0
1.5	0	0	0	0.000486825	0	-0.000750202	0	0	0	-33.232	291.907	27.4563	1.12007	0	-0.387677	0	-7.38707	0
1.51	0	0	0	0.000486825	0	-0.000750202	0	0	0	-77.7359	685.002	54.9395	1.11254	0	-0.379264	0	-10.6536	0
1.52	0	0	0	0.000486825	0	-0.000750202	0	0	0	-137.645	1113	72.3126	1.10654	0	-0.369681	0	-11.3433	0
1.53	0	0	0	0.000486825	0	-0.000750202	0	0	0	-191.171	1369.87	49.381	1.09644	0	-0.365511	0	-9.23021	0
1.54	0	0	0	0.000486825	0	-0.000750202	0	0	0	-224.238	1483.73	-6.88974	1.07631	0	-0.369291	0	-5.48752	0
1.55	0	0	0	0.000486825	0	-0.000750202	0	0	0	-227.576	1596.35	-44.2418	1.04699	0	-0.372632	0	-2.00787	0
1.56	0	0	0	0.000486825	0	-0.000750202	0	0	0	-195.577	1754.1	-33.8424	1.0118	0	-0.370225	0	-0.106029	0
1.57	0	0	0	0.000486825	0	-0.000750202	0	0	0	-128.597	1884.27	-6.87647	0.974487	0	-0.368258	-0	0.258977	-0
1.58	0	0	0	0.000486825	0	-0.000750202	0	0	0	-55.7207	1915.8	-1.07227	0.939145	0	-0.36989	-0	0.129491	-0
1.59	0	0	0	0.000486825	0	-0.000750202	0	0	0	4.58927	1856.31	-14.9433	0.905703	0	-0.371115	-0	0.611509	-0
1.6	0	0	0	0.000486825	0	-0.000750202	0	0	0	66.1019	1735.15	-31.1399	0.871338	0	-0.368954	-0	2.20774	-0
1.61	0	0	0	0.000486825	0	-0.000750202	0	0	0	133.9	1550.96	-45.7626	0.834666	0	-0.365559	-0	4.67906	-0
1.62	0	0	0	0.000486825	0	-0.000750202	0	0	0	199.124	1304.69	-60.2366	0.794028	0	-0.363452	-0	7.24649	-0
1.63	0	0	0	0.000486825	0	-0.000750202	0	0	0	242.78	1028.32	-68.8578	0.749605	0	-0.362662	-0	8.96981	-0
1.64	0	0	0	0.000486825	0	-0.000750202	0	0	0	243.285	760.261	-65.1808	0.708159	0	-0.361951	-0	9.18696	-0
1.65	0	0	0	0.000486825	0	-0.000750202	0	0	0	207.83	521.711	-51.6874	0.677278	0	-0.360826	-0	7.81748	-0
